<?xml version="1.0" encoding="UTF-8"?>
<svg width="1630px" height="684px" viewBox="0 0 1630 684" version="1.1" xmlns="http://www.w3.org/2000/svg" xmlns:xlink="http://www.w3.org/1999/xlink">
    <title>Group 6</title>
    <g id="test-transition" stroke="none" stroke-width="1" fill="none" fill-rule="evenodd">
        <g id="Artboard-Copy-3" transform="translate(-1821, -2033)" fill="#FFFFFF" fill-rule="nonzero">
            <g id="Group-2" transform="translate(244, 245)">
                <g id="Group-6" transform="translate(1577, 1788)">
                    <polygon id="Path" points="30 300 0 317.262999 0 351.737001 30 369 60 351.737001 60 317.262999"></polygon>
                    <polygon id="Path" points="73 369 43 386.262999 43 420.737001 73 438 103 420.737001 103 386.262999"></polygon>
                    <polygon id="Path" points="350.5 26 65 190.512937 65 220.63138 73.9186342 225.80637 73.9186342 267.206292 65 272.381282 65 296.703736 101.867145 317.921195 101.867145 352.645379 124.889666 339.397405 134.689793 345.038144 134.689793 230.670861 350.5 106.471097 566.310207 230.670861 566.310207 479.380889 350.5 603.580653 134.689793 479.380889 134.689793 405.637279 117.059935 415.987259 117.059935 449.728195 87.2965855 466.857413 65 454.023437 65 519.538812 350.5 684 636 519.538812 636 190.512937"></polygon>
                    <g id="Group-5" transform="translate(821, 0)">
                        <g id="Group-4" transform="translate(0, 168)">
                            <path d="M52.7330753,105.908163 L41.2369039,105.908163 C14.6479934,105.908163 0.00482533486,92.2311612 0.00482533486,63.9048583 L0.00482533486,46.7275808 C-0.0595306277,37.5150353 0.519926583,28.3093782 1.73888471,19.1791169 C2.12168577,9.42869174 10.2527353,1.83120904 19.914396,2.19629911 L76.2392136,2.19629911 L76.2392136,8.67829062 C76.6517982,12.6261417 75.4873207,16.5770429 73.0038466,19.6554156 C70.5203725,22.7337883 66.923008,24.6853945 63.0089828,25.0777291 C61.7939778,25.2394321 60.5631957,25.2394321 59.3481908,25.0777291 L28.5204685,25.0777291 C27.9424487,30.0688626 27.4928777,37.5231528 27.4928777,42.3846465 L66.6697748,42.3846465 L66.6697748,52.6261931 C66.6697748,60.0156634 61.2749234,64.1641379 51.4485869,64.1641379 L27.4928777,64.1641379 L27.4928777,67.8588731 C27.4928777,78.8782587 31.0252209,82.7026337 45.0903692,82.7026337 L52.4761777,82.7026337 C60.4409857,82.8155838 68.386322,81.8785804 76.1107648,79.9153773 L76.1107648,90.7403031 C76.3676624,100.268831 70.6516889,105.908163 52.7330753,105.908163 Z" id="Path"></path>
                            <path d="M154.266866,25.2076064 L139.624128,25.2076064 L139.624128,102.505139 L127.203948,102.505139 C123.026615,103.062872 118.811968,101.773042 115.712777,98.9884388 C112.613586,96.2038355 110.954188,92.2158719 111.188453,88.115318 L111.188453,25.2076064 L81.7722372,25.2076064 L81.7722372,15.5931687 C82.0233389,11.7786416 83.8290388,8.22002749 86.7876705,5.708917 C89.7463023,3.19780651 93.6125006,1.94245109 97.5262549,2.22209637 L170.086253,2.22209637 L170.086253,11.7728623 C169.033865,19.4897426 162.258998,25.243354 154.266866,25.2076064 L154.266866,25.2076064 Z" id="Path"></path>
                            <path d="M223.275599,106.924796 C211.203611,107.655346 199.409348,103.03623 190.913683,94.2505441 C182.418017,85.4648586 178.046198,73.3660256 178.917982,61.0529253 L178.917982,1.09183673 L190.793755,1.09183673 C199.780827,1.09183673 206.842097,6.53093001 206.842097,20.75121 L206.842097,60.0699566 C206.842097,77.6323301 212.81208,83.3335483 226.100107,83.3335483 C237.077173,83.3335483 242.533609,76.2561739 242.533609,60.8563315 L242.533609,1.09183673 L254.409382,1.09183673 C264.872901,1.09183673 270.393531,6.53093001 270.393531,20.1614288 L270.393531,60.2665503 C270.200951,86.3479856 254.537769,106.924796 223.275599,106.924796 Z" id="Path"></path>
                            <path d="M329.205985,107 L319.109264,107 C300.792776,107 286.747978,99.9481618 286.747978,82.0573869 L286.747978,6.05424143 C296.162963,2.96959264 305.976199,1.29759319 315.873135,1.09183673 L326.552359,1.09183673 C351.535271,1.09183673 378.330416,17.4155364 378.330416,52.4788432 C378.589306,83.8203465 358.460586,107 329.205985,107 Z M325.32263,24.2061954 L319.627044,24.2061954 C318.124553,24.2734243 316.630502,24.4700235 315.161153,24.7938486 L315.161153,77.6826354 C315.150349,81.0942476 317.74477,83.9392024 321.115663,84.2121153 L325.710966,84.2121153 C341.956331,84.2121153 350.693878,72.3937568 350.693878,54.7641612 C350.49971,34.2615944 339.043815,24.2061954 325.32263,24.2061954 Z" id="Shape"></path>
                            <path d="M406.686274,102.632653 C398.840058,101.991127 393.006178,95.2709148 393.64485,87.6098652 C393.64485,87.6098652 393.64485,87.22793 393.64485,87.0369623 L393.64485,2.18367347 L409.424973,2.18367347 C416.423052,2.45715411 421.950345,8.07778103 421.944744,14.9148496 L421.944744,102.632653 L406.686274,102.632653 Z" id="Path"></path>
                            <path d="M519.337702,102.557053 C509.2461,102.557053 503.911049,99.6314126 502.175551,90.6000875 C501.468496,86.9748372 500.568608,83.0951835 499.347331,78.8339245 L464.380252,78.8339245 C462.194809,86.1480258 460.459311,96.3241668 459.238034,102.557053 L447.925156,102.557053 C444.477689,102.950833 441.033643,101.792636 438.542647,99.401813 C436.051651,97.0109898 434.7768,93.6400557 435.069612,90.2184822 C435.069612,75.6538804 454.352928,20.257513 471.965023,2.19486273 L482.827957,2.19486273 C490.813352,1.9432826 498.321538,5.94918409 502.496939,12.6890081 C517.395296,40.7845326 527.391755,71.1677108 532.06469,102.557053 L519.337702,102.557053 Z M481.992347,27.2536099 C477.150604,36.8605971 473.213045,46.8882556 470.229524,57.2096249 L493.433781,57.2096249 C490.492434,46.9190192 486.664598,36.8969611 481.992347,27.2536099 L481.992347,27.2536099 Z" id="Shape"></path>
                            <path d="M619.387669,102.625635 C608.207089,102.625635 599.036501,97.6705543 590.117162,81.407726 L573.346293,50.5972896 C571.539393,47.4500772 569.903838,44.2053824 568.446938,40.8777087 L568.446938,102.625635 L557.203546,102.625635 C549.027999,102.875789 542.184224,96.4080485 541.877358,88.1415533 L541.877358,2.38054487 L555.06793,2.38054487 C568.620226,2.06446987 580.940858,10.2956681 585.971554,23.0267136 L598.031505,47.1668493 L604.31273,59.3639705 L604.31273,2.18996485 L616.372681,2.18996485 C623.610776,1.96915447 629.720931,7.58701959 630.191375,14.8952994 L630.191375,102.625635 L619.387669,102.625635 Z" id="Path"></path>
                            <path d="M712.445052,25.2037526 L697.813144,25.2037526 L697.813144,102.487434 L685.402151,102.487434 C681.736167,103.01446 678.005918,102.094465 675.038454,99.9314234 C672.07099,97.768382 670.111512,94.5410263 669.594464,90.964908 C669.496673,90.0123805 669.496673,89.0527191 669.594464,88.1001917 L669.594464,25.2037526 L640.004043,25.2037526 L640.004043,15.5910377 C640.288199,11.7662215 642.120634,8.20831979 645.097803,5.70086719 C648.074973,3.1934146 651.952712,1.94205277 655.87705,2.2223614 L728.318059,2.2223614 L728.318059,11.7714159 C727.319037,19.5402021 720.477817,25.3295002 712.445052,25.2037526 L712.445052,25.2037526 Z" id="Path"></path>
                            <path d="M766.533965,107 C744.142783,107 732.11074,98.3803755 732.11074,83.7334949 L732.11074,73.6232586 L732.818507,73.6232586 C741.63608,80.7620332 752.720697,84.4453398 764.024608,83.9927317 C776.893104,83.9927317 781.075365,80.8818898 781.075365,74.0769231 C781.075365,67.2719564 775.541912,65.7813446 760.035375,62.6705027 C737.965905,58.1986675 729.408356,50.0975167 729.408356,34.4784979 C729.408356,16.2671108 745.88003,0 771.681363,0 C797.482697,0 806.233273,11.4064204 806.233273,21.9055118 L806.233273,32.7286493 L805.525506,32.7286493 C797.188648,25.9141931 786.652483,22.430494 775.927967,22.9424591 C762.094334,22.9424591 757.397333,26.6365839 757.397333,32.4046033 C757.397333,37.0060569 759.327608,39.533616 778.115611,43.4221684 C799.026916,47.699576 809,56.3840097 809,72.1326469 C809,93.3252574 793.557805,107 766.533965,107 Z" id="Path"></path>
                        </g>
                        <g id="Group-2" transform="translate(227, 315)">
                            <path d="M39.9511007,107 C18.2546811,107.002818 0.568606208,89.2031765 0.222846706,67.0166415 C-2.00279261,46.078811 12.6919829,27.2207651 33.1450651,24.7670197 L35.6775435,24.7670197 C43.6573666,24.1050002 51.2968875,28.2005703 55.3042506,35.2889561 L55.3042506,0 L64.6427645,0 C75.2475176,0 80.4707542,5.66565809 80.4707542,18.7776097 L80.4707542,63.9409985 C81.5787134,92.107413 70.3408408,107 39.9511007,107 Z M39.9511007,45.4871407 C32.8285054,45.4871407 26.9721492,52.9334342 26.9721492,64.7503782 C26.9721492,80.9379728 33.7781847,86.279879 42.8001388,86.279879 C51.8220929,86.279879 55.1459707,79.8048411 55.1459707,67.6641452 C55.1459707,50.1815431 48.8147749,45.4871407 39.3179811,45.4871407 L39.9511007,45.4871407 Z" id="Shape"></path>
                            <path d="M135.763253,71.9855599 L124.029156,71.9855599 C125.658892,79.5545858 132.014861,83.1814107 143.260037,83.1814107 C151.834862,83.9504884 160.453312,82.249784 168.03202,78.2930815 L169.009862,78.2930815 L169.009862,84.4429151 C169.009862,94.0618855 161.024157,102.734728 138.533804,102.734728 C117.479854,104.18928 99.1181778,89.0213216 97.3014902,68.6741111 L97.3014902,64.1011579 C95.8096251,42.6027004 112.571471,23.986995 134.785412,22.4715154 L137.230015,22.4715154 C145.809885,21.4466202 154.459118,23.7616408 161.274838,28.9072605 C168.090558,34.0528803 172.514409,41.6075613 173.573122,49.9092343 C173.573122,51.0130506 173.573122,51.9591789 173.573122,53.0629951 C174.062042,68.0433589 162.327945,71.9855599 135.763253,71.9855599 Z M137.555962,41.8671443 C130.201926,41.5058036 123.900088,46.9024044 123.377262,54.0091234 L123.377262,55.1129397 L134.785412,55.1129397 C147.49735,55.1129397 149.77898,53.2206832 149.77898,49.9092343 C149.77898,46.5977855 145.378694,41.8671443 137.555962,41.8671443 L137.555962,41.8671443 Z" id="Shape"></path>
                            <path d="M254.264471,106.929329 C240.701574,107.961289 228.885003,97.5700554 227.862777,83.7122577 C227.70861,82.4089967 227.70861,81.0915066 227.862777,79.7882456 L227.862777,0 L237.303383,0 C248.824122,0 254.424481,5.39551661 254.424481,18.8025579 L254.424481,75.700733 C254.424481,82.7312547 258.264728,84.8567612 265.6252,84.8567612 L272.185621,84.8567612 L272.185621,94.3397904 C272.185621,103.495819 262.585005,106.929329 254.264471,106.929329 Z" id="Path"></path>
                            <path d="M313.46935,102.831169 C297.501148,102.831169 279.129132,95.8637935 279.129132,78.6037047 C279.129132,61.3436159 292.350116,53.1094451 322.226106,53.1094451 L326.346932,53.1094451 L326.346932,49.9424564 C326.346932,43.7668283 321.024198,42.1833339 309.176823,42.1833339 C299.240595,41.2075255 289.33629,44.271508 282.04805,50.5758541 L282.04805,50.5758541 L282.04805,41.2332372 C282.04805,31.8906204 292.693518,22.389654 316.388268,22.389654 C325.504505,21.5526582 334.605459,24.1097518 341.667095,29.4922426 C348.728732,34.8747334 353.165549,42.636342 353.990807,51.0509024 C354.161794,52.6304709 354.161794,54.2218171 353.990807,55.8013856 L353.990807,66.8858463 C353.132302,94.9136969 343.517041,102.831169 313.46935,102.831169 Z M326.00353,69.4194373 L320.337394,69.4194373 C309.520225,69.4194373 305.227698,71.9530283 305.227698,77.0202103 C305.227698,82.0873924 308.490018,84.462634 316.388268,84.462634 C321.262582,84.8290545 325.549457,81.5109184 326.00353,77.0202103 C326.178001,76.3970313 326.178001,75.7431961 326.00353,75.1200171 L326.00353,69.4194373 Z" id="Shape"></path>
                        </g>
                        <g id="Group">
                            <path d="M47.5471698,104 L35.990566,104 C10.7311321,104 0,91.1225121 0,65.1980958 L0,0.132893954 L11.5566038,0.132893954 C16.0940863,-0.489156058 20.6548135,1.09482975 23.8917949,4.41702831 C27.1287764,7.73922686 28.6721317,12.4200201 28.0660377,17.0769569 L28.0660377,62.3176051 C28.0660377,75.7034148 31.5330189,79.2616681 44.5754717,79.2616681 L48.8679245,79.2616681 C56.0264748,79.4275683 63.1636666,78.397478 70,76.2117367 L70,76.2117367 L70,87.055937 C69.3396226,97.0529342 63.3962264,104 47.5471698,104 Z" id="Path"></path>
                            <path d="M119.018884,76.6799361 L108.301265,76.6799361 C109.640967,83.410546 115.5952,86.4954089 125.866251,86.4954089 C133.67505,87.0736065 141.502304,85.618367 148.492335,82.2887777 L149.38547,82.2887777 L149.38547,87.6171772 C149.38547,96.1706606 141.942679,103.882818 121.549433,103.882818 C112.343967,104.618965 103.207133,101.865077 96.165141,96.2318644 C89.1231487,90.5986516 84.7580163,82.551697 84.0377674,73.8755153 C84.0377674,72.473305 84.0377674,71.0710946 84.0377674,69.6688842 C83.5937732,60.4064715 87.0790245,51.3580647 93.7249931,44.5189158 C100.370962,37.6797669 109.631814,33.6115758 119.465451,33.2114139 L120.805153,33.2114139 C128.641783,32.3000456 136.541767,34.3586329 142.767068,38.9342757 C148.992369,43.5099186 153.033,50.2277726 154,57.6098748 C154,58.591422 154,59.4327483 154,60.2740745 C154,73.0341891 143.133526,76.6799361 119.018884,76.6799361 Z M120.656298,49.8977176 C117.378078,49.7060658 114.153769,50.7519205 111.695803,52.8041937 C109.237837,54.856467 107.748542,57.7462252 107.556986,60.8349587 L107.556986,61.2556218 L117.232614,61.2556218 C128.992223,61.2556218 131.076205,59.5729693 131.076205,56.6283275 C131.076205,53.6836856 127.801377,49.8977176 120.656298,49.8977176 L120.656298,49.8977176 Z" id="Shape"></path>
                            <path d="M200.538084,107 C178.007371,107 169.751843,99.5354331 169.751843,88.6496063 L169.751843,81.1850394 C177.185875,85.8828986 186.151386,88.1833994 195.206388,87.7165354 C205.525799,87.7165354 208.793612,85.5393701 208.793612,81.9625984 C208.793612,78.3858268 206.90172,77.1417323 189.702703,74.9645669 C172.503686,72.7874016 167,67.0334646 167,55.0590551 C167,37.019685 185.746929,28 204.665848,28 C223.584767,28 234.248157,34.6870079 234.248157,45.7283465 L234.248157,53.503937 C226.718544,49.1494725 217.897254,46.9790988 208.965602,47.2834646 C198.302211,47.2834646 194.862408,49.7716535 194.862408,53.0374016 C194.862408,56.3031496 196.58231,56.769685 213.953317,59.4133858 C227.712531,61.4350394 237,68.1220472 237,80.8740157 C237,97.5137795 223.240786,107 200.538084,107 Z" id="Path"></path>
                        </g>
                        <g id="Group-3" transform="translate(94, 459)">
                            <path d="M131.683324,58.7554377 L105.061424,58.7554377 L105.061424,205.647668 L82.5143055,205.647668 C67.0301395,205.647668 53.4475378,198.728581 53.4475378,177.971318 L53.4475378,58.7554377 L0,58.7554377 L0,40.696619 C1.19229233,25.5606823 14.131994,14.2299413 28.9988547,15.3035673 L160.410526,15.3035673 L160.410526,33.7775313 C160.410526,45.1940259 147.235403,58.7554377 131.683324,58.7554377 Z" id="Path"></path>
                            <path d="M228.783181,147.61378 L206.361102,147.61378 C209.368942,163.017785 221.673741,170.299678 243.2755,170.299678 C267.338218,170.299678 282.309057,166.378658 290.785696,160.497129 L292.699776,160.497129 L292.699776,172.750315 C292.699776,192.355412 277.113697,210 234.25198,210 C182.298384,210 154.954386,174.150679 154.954386,131.649629 C154.954386,84.8774681 185.853104,46.7875648 232.3379,46.7875648 C271.644898,46.7875648 302.270175,69.4734631 302.270175,108.683658 C302.270175,139.491668 279.574657,147.61378 228.783181,147.61378 Z M232.3379,86.5579051 C214.017422,86.5579051 206.361102,98.6010363 204.993902,113.444896 L225.501901,113.444896 C250.111499,113.444896 254.486539,109.523876 254.486539,102.802129 C254.213099,94.9600896 247.377099,86.5579051 232.3379,86.5579051 Z" id="Shape"></path>
                            <path d="M447.135871,102.971223 C437.562233,95.6500219 425.879331,91.8862033 413.979553,92.2894278 C388.704655,92.2894278 374.640397,105.501122 374.640397,127.426912 C374.640397,153.8503 388.704655,166.218695 411.533595,166.218695 C424.12442,166.770688 436.62212,163.757722 447.679418,157.504599 L448.222964,157.504599 L448.222964,172.894817 C448.222964,193.415107 427.839981,210 400.662672,210 C355.344507,210 323.003509,178.235714 323.003509,129.956811 C323.003509,85.8241307 352.626776,47.8756477 405.282814,47.8756477 C428.927074,47.8756477 448.494737,63.8983405 448.494737,83.8564315 L448.494737,102.619848 L447.135871,102.971223 Z" id="Path"></path>
                            <path d="M602.148024,205.647668 C574.953537,205.647668 570.330474,192.586262 570.330474,173.688909 L570.330474,122.62437 C570.330474,100.947994 562.716018,91.2214151 548.030994,91.2214151 C527.635129,91.2214151 523.012066,102.059603 523.012066,123.735979 L523.012066,205.647668 L505.403635,205.647668 C480.724638,205.647668 471.410526,195.087383 471.410526,173.688909 L471.410526,0 L487.999164,0 C509.414822,0 521.652342,10.5602857 521.652342,30.2913457 L521.652342,69.6839903 C529.266798,57.4562911 542.048207,48.2855167 565.435466,48.2855167 C595.621347,48.2855167 622,72.1851106 622,113.592547 L622,205.647668 L602.148024,205.647668 Z" id="Path"></path>
                        </g>
                    </g>
                </g>
            </g>
        </g>
    </g>
</svg>