<?xml version="1.0" encoding="UTF-8"?>
<svg width="300px" height="257px" viewBox="0 0 300 257" version="1.1" xmlns="http://www.w3.org/2000/svg" xmlns:xlink="http://www.w3.org/1999/xlink">
    <title>futurs</title>
    <defs>
        <linearGradient x1="0%" y1="49.8017446%" x2="100%" y2="49.8017446%" id="linearGradient-1">
            <stop stop-color="#760051" offset="7%"></stop>
            <stop stop-color="#840055" offset="13%"></stop>
            <stop stop-color="#9F005D" offset="25%"></stop>
            <stop stop-color="#B40163" offset="39%"></stop>
            <stop stop-color="#C30168" offset="55%"></stop>
            <stop stop-color="#CC016A" offset="73%"></stop>
            <stop stop-color="#CF016B" offset="100%"></stop>
        </linearGradient>
        <linearGradient x1="0%" y1="49.9868421%" x2="100%" y2="49.9868421%" id="linearGradient-2">
            <stop stop-color="#760051" offset="7%"></stop>
            <stop stop-color="#96005A" offset="24%"></stop>
            <stop stop-color="#AF0162" offset="41%"></stop>
            <stop stop-color="#C10167" offset="59%"></stop>
            <stop stop-color="#CC016A" offset="78%"></stop>
            <stop stop-color="#CF016B" offset="100%"></stop>
        </linearGradient>
        <linearGradient x1="105.32524%" y1="114.471736%" x2="-7.32936326%" y2="171.166532%" id="linearGradient-3">
            <stop stop-color="#760051" offset="7%"></stop>
            <stop stop-color="#96005A" offset="24%"></stop>
            <stop stop-color="#AF0162" offset="41%"></stop>
            <stop stop-color="#C10167" offset="59%"></stop>
            <stop stop-color="#CC016A" offset="78%"></stop>
            <stop stop-color="#CF016B" offset="100%"></stop>
        </linearGradient>
        <linearGradient x1="-8.1640299e-14%" y1="50.0395883%" x2="100%" y2="50.0395883%" id="linearGradient-4">
            <stop stop-color="#CF016B" offset="0%"></stop>
            <stop stop-color="#CC016A" offset="27%"></stop>
            <stop stop-color="#C30168" offset="45%"></stop>
            <stop stop-color="#B40163" offset="61%"></stop>
            <stop stop-color="#9F005D" offset="75%"></stop>
            <stop stop-color="#840055" offset="87%"></stop>
            <stop stop-color="#760051" offset="93%"></stop>
        </linearGradient>
        <linearGradient x1="40.5921648%" y1="525.225037%" x2="56.823865%" y2="444.463052%" id="linearGradient-5">
            <stop stop-color="#760051" offset="7%"></stop>
            <stop stop-color="#96005A" offset="24%"></stop>
            <stop stop-color="#AF0162" offset="41%"></stop>
            <stop stop-color="#C10167" offset="59%"></stop>
            <stop stop-color="#CC016A" offset="78%"></stop>
            <stop stop-color="#CF016B" offset="100%"></stop>
        </linearGradient>
        <linearGradient x1="49.9758337%" y1="1863.20571%" x2="49.9758337%" y2="1963.20571%" id="linearGradient-6">
            <stop stop-color="#760051" offset="7%"></stop>
            <stop stop-color="#96005A" offset="24%"></stop>
            <stop stop-color="#AF0162" offset="41%"></stop>
            <stop stop-color="#C10167" offset="59%"></stop>
            <stop stop-color="#CC016A" offset="78%"></stop>
            <stop stop-color="#CF016B" offset="100%"></stop>
        </linearGradient>
        <linearGradient x1="2.23652104e-14%" y1="50.25%" x2="100%" y2="50.25%" id="linearGradient-7">
            <stop stop-color="#CF016B" offset="4%"></stop>
            <stop stop-color="#CC016A" offset="26%"></stop>
            <stop stop-color="#C20167" offset="44%"></stop>
            <stop stop-color="#B10162" offset="60%"></stop>
            <stop stop-color="#9A005B" offset="75%"></stop>
            <stop stop-color="#7B0053" offset="90%"></stop>
            <stop stop-color="#760051" offset="92%"></stop>
        </linearGradient>
        <linearGradient x1="49.9659864%" y1="0.0181126607%" x2="49.9659864%" y2="99.9094367%" id="linearGradient-8">
            <stop stop-color="#760051" offset="0%"></stop>
            <stop stop-color="#96005A" offset="14%"></stop>
            <stop stop-color="#AF0162" offset="22%"></stop>
            <stop stop-color="#B30163" offset="23%"></stop>
            <stop stop-color="#BE0166" offset="29%"></stop>
            <stop stop-color="#C10167" offset="36%"></stop>
            <stop stop-color="#CC016A" offset="53%"></stop>
            <stop stop-color="#CF016B" offset="100%"></stop>
        </linearGradient>
        <linearGradient x1="0%" y1="50%" x2="100%" y2="50%" id="linearGradient-9">
            <stop stop-color="#760051" offset="8%"></stop>
            <stop stop-color="#7B0053" offset="10%"></stop>
            <stop stop-color="#9A005B" offset="25%"></stop>
            <stop stop-color="#B10162" offset="40%"></stop>
            <stop stop-color="#C20167" offset="56%"></stop>
            <stop stop-color="#CC016A" offset="74%"></stop>
            <stop stop-color="#CF016B" offset="96%"></stop>
        </linearGradient>
        <linearGradient x1="42.9192847%" y1="69.4930644%" x2="56.5490575%" y2="31.6948786%" id="linearGradient-10">
            <stop stop-color="#CF016B" offset="0%"></stop>
            <stop stop-color="#C80169" offset="17%"></stop>
            <stop stop-color="#B60164" offset="40%"></stop>
            <stop stop-color="#98005B" offset="68%"></stop>
            <stop stop-color="#760051" offset="93%"></stop>
        </linearGradient>
        <linearGradient x1="50.0680735%" y1="169.247507%" x2="50.0680735%" y2="269.247507%" id="linearGradient-11">
            <stop stop-color="#760051" offset="7%"></stop>
            <stop stop-color="#96005A" offset="24%"></stop>
            <stop stop-color="#AF0162" offset="41%"></stop>
            <stop stop-color="#C10167" offset="59%"></stop>
            <stop stop-color="#CC016A" offset="78%"></stop>
            <stop stop-color="#CF016B" offset="100%"></stop>
        </linearGradient>
        <linearGradient x1="43.1949421%" y1="13.6668062%" x2="59.3832816%" y2="94.4118878%" id="linearGradient-12">
            <stop stop-color="#CF016B" offset="0%"></stop>
            <stop stop-color="#CC016A" offset="22%"></stop>
            <stop stop-color="#C10167" offset="41%"></stop>
            <stop stop-color="#AF0162" offset="59%"></stop>
            <stop stop-color="#96005A" offset="76%"></stop>
            <stop stop-color="#760051" offset="93%"></stop>
        </linearGradient>
        <linearGradient x1="43.5601315%" y1="299.464373%" x2="59.5405115%" y2="218.324947%" id="linearGradient-13">
            <stop stop-color="#760051" offset="7%"></stop>
            <stop stop-color="#96005A" offset="24%"></stop>
            <stop stop-color="#AF0162" offset="41%"></stop>
            <stop stop-color="#C10167" offset="59%"></stop>
            <stop stop-color="#CC016A" offset="78%"></stop>
            <stop stop-color="#CF016B" offset="100%"></stop>
        </linearGradient>
        <linearGradient x1="40.4674709%" y1="434.479961%" x2="56.4300869%" y2="353.334415%" id="linearGradient-14">
            <stop stop-color="#CF016B" offset="0%"></stop>
            <stop stop-color="#CC016A" offset="22%"></stop>
            <stop stop-color="#C10167" offset="41%"></stop>
            <stop stop-color="#AF0162" offset="59%"></stop>
            <stop stop-color="#96005A" offset="76%"></stop>
            <stop stop-color="#760051" offset="93%"></stop>
        </linearGradient>
        <linearGradient x1="0.0119203719%" y1="279.773162%" x2="100.047681%" y2="279.773162%" id="linearGradient-15">
            <stop stop-color="#CF016B" offset="0%"></stop>
            <stop stop-color="#CC016A" offset="22%"></stop>
            <stop stop-color="#C10167" offset="41%"></stop>
            <stop stop-color="#AF0162" offset="59%"></stop>
            <stop stop-color="#96005A" offset="76%"></stop>
            <stop stop-color="#760051" offset="93%"></stop>
        </linearGradient>
        <linearGradient x1="0.0476360605%" y1="531.023963%" x2="99.988091%" y2="531.023963%" id="linearGradient-16">
            <stop stop-color="#760051" offset="7%"></stop>
            <stop stop-color="#96005A" offset="24%"></stop>
            <stop stop-color="#AF0162" offset="41%"></stop>
            <stop stop-color="#C10167" offset="59%"></stop>
            <stop stop-color="#CC016A" offset="78%"></stop>
            <stop stop-color="#CF016B" offset="100%"></stop>
        </linearGradient>
    </defs>
    <g id="Page-1" stroke="none" stroke-width="1" fill="none" fill-rule="evenodd">
        <g id="futurs" fill-rule="nonzero">
            <path d="M150,170.61 C118.61,170.61 89.07,162.61 66.66,148.27 C43.6,133.37 30.91,113.35 30.91,91.85 C30.91,70.35 43.6,50.37 66.66,35.43 C89,21 118.56,13.09 150,13.09 C181.44,13.09 210.93,21 233.34,35.43 C256.4,50.32 269.09,70.34 269.09,91.85 C269.09,113.36 256.4,133.33 233.34,148.27 C210.93,162.66 181.39,170.61 150,170.61 Z M150,23.79 C90.17,23.79 41.52,54.34 41.52,91.89 C41.52,129.44 90.17,160 150,160 C209.83,160 258.48,129.44 258.48,91.89 C258.48,54.34 209.83,23.79 150,23.79 Z" id="Shape" fill="#CF016B"></path>
            <path d="M150,183.79 C134.52,183.79 120.19,173.79 109.65,155.71 C99.65,138.56 94.1,115.86 94.1,91.8 C94.1,67.74 99.61,45.13 109.65,28 C120.19,9.93 134.52,0 150,0 C165.48,0 179.81,9.93 190.35,28 C200.35,45.15 205.9,67.86 205.9,91.91 C205.9,115.96 200.39,138.67 190.35,155.73 C179.81,173.77 165.48,183.79 150,183.79 Z M150,10.61 C138.45,10.61 127.43,18.69 118.81,33.35 C109.81,48.9 104.71,69.69 104.71,91.89 C104.71,114.09 109.71,134.89 118.81,150.43 C127.43,165.1 138.45,173.18 150,173.18 C161.55,173.18 172.57,165.1 181.19,150.43 C190.19,134.88 195.29,114.1 195.29,91.89 C195.29,69.68 190.29,49.02 181.19,33.35 C172.57,18.69 161.55,10.61 150,10.61 Z" id="Shape" fill="#CF016B"></path>
            <path d="M172.7,131.23 C137,151.83 99.07,150.7 86.34,128.63 C73.61,106.56 91.6,73.14 127.34,52.54 C163.08,31.94 200.97,33.06 213.7,55.11 C226.43,77.16 208.4,110.58 172.7,131.23 Z M132.8,62.08 C103.44,79 86.54,107 95.84,123.15 C105.14,139.3 137.84,138.63 167.17,121.7 C196.5,104.77 213.46,76.7 204.17,60.64 C194.88,44.58 162.14,45.13 132.8,62.08 Z" id="Shape" fill="#CF016B"></path>
            <path d="M123.89,158 C127.652149,163.073131 132.491412,167.249856 138.06,170.23 C142.01,170.48 145.98,170.61 150,170.61 C154.02,170.61 158,170.48 161.94,170.23 C167.508588,167.249856 172.347851,163.073131 176.11,158 C167.471429,159.340408 158.74194,160.009078 150,160 C141.25806,160.009078 132.528571,159.340408 123.89,158 L123.89,158 Z" id="Path" fill="url(#linearGradient-1)"></path>
            <path d="M269.09,91.89 C269.09,70.43 256.4,50.41 233.34,35.48 C217.586401,25.6825927 200.066786,19.0647509 181.77,16 C185.017746,19.7080466 187.89167,23.7275209 190.35,28 C190.51,28.27 190.67,28.54 190.8,28.82 C230.45,39 258.5,63.39 258.5,92" id="Path" fill="url(#linearGradient-2)"></path>
            <path d="M30.91,91.89 C30.91,113.35 43.6,133.37 66.66,148.31 C82.4113736,158.119833 99.9308301,164.751204 118.23,167.83 C114.970855,164.087904 112.096386,160.027465 109.65,155.71 C109.49,155.44 109.33,155.17 109.2,154.9 C69.55,144.75 41.5,120.28 41.5,91.71" id="Path" fill="url(#linearGradient-3)"></path>
            <path d="M176.11,25.79 C172.348592,20.7109664 167.509496,16.5275562 161.94,13.54 C157.99,13.29 154.02,13.16 150,13.16 C145.98,13.16 142,13.29 138.06,13.54 C132.491412,16.5201443 127.652149,20.6968688 123.89,25.77 C141.193511,23.0899984 158.806489,23.0899984 176.11,25.77 L176.11,25.79 Z" id="Path" fill="url(#linearGradient-4)"></path>
            <path d="M195.13,98.05 C199.701305,92.5074022 203.173358,86.1436699 205.36,79.3 C204.768491,72.0013927 203.611688,64.7596683 201.9,57.64 C198.362116,53.9129199 193.776936,51.3466139 188.75,50.28 C193.157084,63.7061495 195.35238,77.7594161 195.25,91.89 C195.29,94 195.13,96 195.13,98.05 Z" id="Path" fill="url(#linearGradient-5)"></path>
            <path d="M181.19,33.35 C182.11,34.89 182.97,36.51 183.78,38.16 C188.229447,38.5954714 192.601155,39.6211413 196.78,41.21 C195.068995,36.9397342 193.064195,32.7931396 190.78,28.8 C186.04,27.58 181.143333,26.58 176.09,25.8 C177.955983,28.2004685 179.659766,30.7227342 181.19,33.35 L181.19,33.35 Z" id="Path" fill="url(#linearGradient-6)"></path>
            <path d="M150,173.18 C145.840743,173.123014 141.752231,172.09575 138.06,170.18 C131.410776,169.730715 124.790966,168.919513 118.23,167.75 C127.43,178.24 138.4,183.75 150,183.75 C161.6,183.75 172.57,178.24 181.77,167.75 C175.209034,168.919513 168.589224,169.730715 161.94,170.18 C158.247769,172.09575 154.159257,173.123014 150,173.18 L150,173.18 Z" id="Path" fill="url(#linearGradient-7)"></path>
            <path d="M106.83,67.41 C108.813194,55.4437582 112.874405,43.9166877 118.83,33.35 C120.353407,30.7198833 122.050506,28.1942804 123.91,25.79 C118.85,26.5766667 113.953333,27.5766667 109.22,28.79 C100.516534,44.8915802 95.4925656,62.7230808 94.51,81 C98.1674282,76.0821705 102.293429,71.5308435 106.83,67.41 L106.83,67.41 Z" id="Path" fill="url(#linearGradient-8)"></path>
            <path d="M150,10.61 C154.153778,10.6442138 158.242235,11.6474949 161.94,13.54 C168.590255,13.9942313 175.21034,14.8154824 181.77,16 C172.57,5.6 161.62,0 150,0 C138.38,0 127.43,5.6 118.23,16 C124.790432,14.8205651 131.410238,13.9993487 138.06,13.54 C141.757765,11.6474949 145.846222,10.6442138 150,10.61 L150,10.61 Z" id="Path" fill="url(#linearGradient-9)"></path>
            <path d="M116.15,145.63 C111.702852,145.21062 107.33121,144.20178 103.15,142.63 C104.861005,146.900266 106.865805,151.04686 109.15,155.04 C113.992142,156.290556 118.895252,157.291872 123.84,158.04 C121.978235,155.637358 120.281032,153.111599 118.76,150.48 C117.89,148.94 117,147.27 116.15,145.63 Z" id="Path" fill="url(#linearGradient-10)"></path>
            <path d="M193.17,116.38 C191.18568,128.342794 187.124501,139.866388 181.17,150.43 C179.65119,153.056612 177.953867,155.575867 176.09,157.97 C181.15,157.18 186.04,156.16 190.78,154.97 C199.465516,138.883888 204.482207,121.074464 205.47,102.82 C201.816922,107.726112 197.697732,112.267269 193.17,116.38 L193.17,116.38 Z" id="Path" fill="url(#linearGradient-11)"></path>
            <path d="M98.1,126.15 C101.640606,129.873577 106.224626,132.439234 111.25,133.51 C106.84219,120.080583 104.646891,106.023909 104.75,91.89 C104.75,89.82 104.75,87.76 104.89,85.73 C100.319922,91.2755641 96.8511053,97.6429804 94.67,104.49 C95.2472608,111.788338 96.3940866,119.030392 98.1,126.15 L98.1,126.15 Z" id="Path" fill="url(#linearGradient-12)"></path>
            <path d="M95.84,123.15 C92.84,117.91 92.57,111.41 94.6,104.49 C94.26,100.33 94.08,96.14 94.08,91.89 C94.08,88.19 94.21,84.56 94.48,80.95 C82.3,97.4 78.48,115.09 86.34,128.63 C90.1875598,135.092584 96.1617723,140.016891 103.24,142.56 C101.129038,137.222573 99.4111259,131.737954 98.1,126.15 C97.2425704,125.232841 96.4849872,124.227199 95.84,123.15 L95.84,123.15 Z" id="Path" fill="url(#linearGradient-13)"></path>
            <path d="M204.16,60.64 C207.16,65.87 207.43,72.37 205.4,79.3 C205.74,83.4533333 205.913333,87.65 205.92,91.89 C205.92,95.59 205.79,99.23 205.52,102.89 C217.75,86.44 221.52,68.68 213.68,55.18 C209.834527,48.7178608 203.859182,43.7961562 196.78,41.26 C198.890392,46.6025977 200.60175,52.0943185 201.9,57.69 C202.756833,58.5895364 203.514517,59.578548 204.16,60.64 Z" id="Path" fill="url(#linearGradient-14)"></path>
            <path d="M167.2,121.7 C147.29,133.15 125.85,137.19 111.2,133.51 C112.572264,137.656484 114.222678,141.705676 116.14,145.63 C132.59,147.34 152.95,142.63 172.56,131.23 C179.8793,127.016743 186.730974,122.038887 193,116.38 C194.105676,110.323596 194.80391,104.199854 195.09,98.05 C187.339867,107.594161 177.882421,115.613831 167.2,121.7 L167.2,121.7 Z" id="Path" fill="url(#linearGradient-15)"></path>
            <path d="M127.3,52.56 C119.962679,56.7597527 113.099667,61.7385377 106.83,67.41 C105.753859,73.471716 105.085692,79.598813 104.83,85.75 C112.603482,76.1924594 122.088422,68.1656976 132.8,62.08 C152.71,50.6 174.15,46.6 188.8,50.28 C187.431259,46.1322173 185.780749,42.0827893 183.86,38.16 C167.33,36.45 147,41.18 127.3,52.56 Z" id="Path" fill="url(#linearGradient-16)"></path>
            <path d="M27.66,214.9 L27.66,221.85 L6.9,221.85 L0,214.9 L27.66,214.9 Z M6.9,235.61 L27.66,235.61 L27.66,242.61 L6.9,242.61 L6.9,256.41 L0,256.41 L0,235.61 L6.9,235.61 Z" id="Shape" fill="#FFFFFF"></path>
            <path d="M88.39,239.13 C88.4805128,243.745358 86.6346241,248.187821 83.3,251.38 C76.5333597,258.086002 65.6266403,258.086002 58.86,251.38 C55.5848685,248.154508 53.7773247,243.726026 53.86,239.13 L53.86,214.9 L60.76,214.9 L60.76,239.13 C60.7466423,241.872025 61.829313,244.505749 63.767301,246.445615 C65.7052891,248.385481 68.3379637,249.470702 71.08,249.46 C76.7772202,249.401663 81.3967807,244.826394 81.51,239.13 L88.39,239.13 Z" id="Path" fill="#FFFFFF"></path>
            <polygon id="Path" fill="#FFFFFF" points="135.93 214.9 135.93 221.85 122.13 221.85 122.13 256.41 115.18 256.41 115.18 214.9"></polygon>
            <path d="M197,239.13 C197.090513,243.745358 195.244624,248.187821 191.91,251.38 C186.971936,256.33639 179.529183,257.819181 173.068656,255.133689 C166.60813,252.448197 162.409572,246.126381 162.439836,239.13 L162.439836,214.9 L169.34,214.9 L169.34,239.13 C169.34,244.862716 173.987284,249.51 179.72,249.51 C185.452716,249.51 190.1,244.862716 190.1,239.13 L197,239.13 Z" id="Path" fill="#FFFFFF"></path>
            <path d="M228.69,241.52 L237.2,256.41 L229.26,256.41 L217.26,235.61 L223.43,235.61 C227.256885,235.555325 230.330391,232.437275 230.33,228.61 C230.355268,226.782381 229.602739,225.030114 228.26,223.79 C226.993907,222.48695 225.246652,221.763449 223.43,221.79 L209.54,221.79 L208.76,221.02 L205.18,214.84 L223.39,214.84 C231.00859,214.851 237.183482,221.02142 237.2,228.64 C237.245021,231.446881 236.389924,234.194403 234.76,236.48 C233.2869,238.729832 231.172299,240.485612 228.69,241.52 Z" id="Path" fill="#FFFFFF"></path>
            <path d="M277.53,239.13 C274.31346,239.186679 271.216191,237.913035 268.97,235.61 C266.668975,233.336997 265.394189,230.224062 265.44,226.99 C265.40446,223.790164 266.679982,220.71518 268.97,218.48 C271.193945,216.137474 274.300519,214.838229 277.53,214.9 L277.53,221.85 C276.845366,221.839152 276.165441,221.964938 275.53,222.22 C274.879451,222.468194 274.292021,222.857536 273.81,223.36 C271.874593,225.416209 271.874593,228.623791 273.81,230.68 C274.786651,231.694609 276.141956,232.2563 277.55,232.23 L287.88,232.23 C294.557123,232.23 299.97,237.642877 299.97,244.32 C299.97,250.997123 294.557123,256.41 287.88,256.41 L287.88,249.41 C288.563897,249.423228 289.243642,249.300874 289.88,249.05 C290.520709,248.811764 291.103553,248.440244 291.59,247.96 C292.068385,247.491411 292.440159,246.925223 292.68,246.3 C292.949406,245.667202 293.092099,244.987714 293.1,244.3 C293.084392,242.930486 292.522857,241.623837 291.54,240.67 C290.583563,239.660993 289.250203,239.095764 287.86,239.11 L277.53,239.13 Z" id="Path" fill="#FFFFFF"></path>
        </g>
    </g>
</svg>