<?xml version="1.0" encoding="UTF-8"?>
<svg width="2181px" height="606px" viewBox="0 0 2181 606" version="1.1" xmlns="http://www.w3.org/2000/svg" xmlns:xlink="http://www.w3.org/1999/xlink">
    <title>techup</title>
    <g id="Logos" stroke="none" stroke-width="1" fill="none" fill-rule="evenodd">
        <g id="TechUp-variante-noire" transform="translate(-194.5, -174)" fill="#FFFFFF" fill-rule="nonzero">
            <g id="techup" transform="translate(194.5, 174)">
                <path d="M282,306.5 L238,306.5 C221.333333,306.5 207.916667,305.666667 197.75,304 C187.583333,302.333333 179.833333,298.666667 174.5,293 C168.833333,287.666667 165.083333,279.5 163.25,268.5 C161.416667,257.5 160.5,242.833333 160.5,224.5 L160.5,165 L282,165 L282,93 L160.5,93 L160.5,14.5 L89.5,14.5 C89.8333333,22.1666667 89.75,31.1666667 89.25,41.5 C88.75,51.8333333 87.3333333,60.6666667 85,68 C82.3333333,76.3333333 78.9166667,82.5 74.75,86.5 C70.5833333,90.5 64,93.3333333 55,95 C47.6666667,96 38.9166667,96.5833333 28.75,96.75 C18.5833333,96.9166667 9,97 0,97 L0,165 L80,165 L80,238.5 C80,273.166667 84,300.833333 92,321.5 C100,342.166667 113.833333,357.166667 133.5,366.5 C143.166667,370.833333 154.833333,374.166667 168.5,376.5 C182.166667,378.833333 197.833333,380 215.5,380 L282,380 L282,306.5 Z" id="Path"></path>
                <path d="M694,294.5 L600.5,294.5 C593.5,304.166667 583,311.5 569,316.5 C555,321.5 535,324 509,324 C474.333333,324 448.333333,319.166667 431,309.5 C413.666667,299.833333 402.5,285.666667 397.5,267 L697.5,267 L697.5,236.5 C697.5,204.5 690,177 675,154 C660,131 638.5,113.333333 610.5,101 C596.166667,94.6666667 580.583333,90 563.75,87 C546.916667,84 528.5,82.5 508.5,82.5 C465.833333,82.5 430.333333,89.8333333 402,104.5 C373.666667,119.166667 352.333333,138.666667 338,163 C331,175 325.75,187.583333 322.25,200.75 C318.75,213.916667 317,227.666667 317,242 C317,271 322.916667,296.583333 334.75,318.75 C346.583333,340.916667 366,358.333333 393,371 C406.666667,377 422.583333,381.583333 440.75,384.75 C458.916667,387.916667 479.333333,389.5 502,389.5 C549.333333,389.5 589.333333,382.5 622,368.5 C654.666667,354.5 678.666667,329.833333 694,294.5 Z M511,147.5 C541.666667,147.5 565.25,152.083333 581.75,161.25 C598.25,170.416667 608.833333,185.5 613.5,206.5 L399.5,206.5 C405.5,187.833333 417.666667,173.333333 436,163 C454.333333,152.666667 479.333333,147.5 511,147.5 Z" id="Shape"></path>
                <path d="M1120.5,253.5 L1029,253.5 C1025.66667,274.833333 1016.25,291.25 1000.75,302.75 C985.25,314.25 960.833333,320 927.5,320 C891.166667,320 864.75,313.166667 848.25,299.5 C831.75,285.833333 823.5,265.5 823.5,238.5 C823.5,209.166667 832.25,187.25 849.75,172.75 C867.25,158.25 893.5,151 928.5,151 C960.166667,151 983.916667,156.416667 999.75,167.25 C1015.58333,178.083333 1025.33333,194.166667 1029,215.5 L1120.5,215.5 C1115.16667,173.166667 1096.08333,140.416667 1063.25,117.25 C1030.41667,94.0833333 985.166667,82.5 927.5,82.5 C889.166667,82.5 855.666667,88.8333333 827,101.5 C798.333333,114.166667 776.166667,132.166667 760.5,155.5 C752.833333,167.166667 747,179.916667 743,193.75 C739,207.583333 737,222.5 737,238.5 C737,269.5 743.166667,296.333333 755.5,319 C767.833333,341.666667 787.666667,359 815,371 C829,377.333333 845.166667,382 863.5,385 C881.833333,388 902.333333,389.5 925,389.5 C967.666667,389.5 1003.08333,383.75 1031.25,372.25 C1059.41667,360.75 1080.83333,344.833333 1095.5,324.5 C1102.83333,314.5 1108.58333,303.5 1112.75,291.5 C1116.91667,279.5 1119.5,266.833333 1120.5,253.5 Z" id="Path"></path>
                <path d="M1249,252 C1249,218.333333 1256.83333,193 1272.5,176 C1288.16667,159 1312.5,150.5 1345.5,150.5 C1366.5,150.5 1383.08333,154.583333 1395.25,162.75 C1407.41667,170.916667 1416.16667,182.333333 1421.5,197 C1423.83333,204.333333 1425.66667,212.25 1427,220.75 C1428.33333,229.25 1429,238.333333 1429,248 L1429,380 L1514.5,380 L1514.5,223 C1514.5,194.333333 1509,169.5 1498,148.5 C1487,127.5 1471,111.333333 1450,100 C1439.66667,94 1428.08333,89.5833333 1415.25,86.75 C1402.41667,83.9166667 1388.5,82.5 1373.5,82.5 C1342.83333,82.5 1317.08333,88.75 1296.25,101.25 C1275.41667,113.75 1259.66667,130.5 1249,151.5 L1249,0 L1167,0 L1167,380 L1249,380 L1249,252 Z" id="Path"></path>
                <path d="M1691,503 L1771.5,503 L1771.5,216 L1685,216 L1685,351 C1685,379.333333 1677.83333,401.75 1663.5,418.25 C1649.16667,434.75 1628.33333,443 1601,443 C1569.66667,443 1547.5,435.583333 1534.5,420.75 C1521.5,405.916667 1515,384.333333 1515,356 L1514.5,251.730823 L1429,270.863588 L1429,373 C1429,415.666667 1440.75,449.583333 1464.25,474.75 C1487.75,499.916667 1521.66667,512.5 1566,512.5 C1598,512.5 1624.5,505.75 1645.5,492.25 C1666.5,478.75 1681.66667,460.666667 1691,438 L1691,503 Z" id="Path"></path>
                <path d="M1990,443 C1954.66667,443 1928.5,436.166667 1911.5,422.5 C1894.5,408.833333 1886,388.5 1886,361.5 C1886,333.5 1895.16667,311.916667 1913.5,296.75 C1931.83333,281.583333 1957.66667,274 1991,274 C2027.33333,274 2053.66667,281.416667 2070,296.25 C2086.33333,311.083333 2094.5,332.833333 2094.5,361.5 C2094.5,387.833333 2086.58333,408 2070.75,422 C2054.91667,436 2028,443 1990,443 Z M2016.5,511.5 C2038.16667,511.5 2058.83333,508.416667 2078.5,502.25 C2098.16667,496.083333 2115.66667,486.833333 2131,474.5 C2146.66667,461.833333 2158.91667,446.166667 2167.75,427.5 C2176.58333,408.833333 2181,386.833333 2181,361.5 C2181,310.833333 2166.5,272.333333 2137.5,246 C2108.5,219.666667 2069,206.5 2019,206.5 C1989,206.5 1962.25,211.666667 1938.75,222 C1915.25,232.333333 1896.83333,247.833333 1883.5,268.5 L1883.5,216 L1804.5,216 L1804.5,606 L1887.5,606 L1887.5,460 C1899.16667,477 1915.58333,489.833333 1936.75,498.5 C1957.91667,507.166667 1984.5,511.5 2016.5,511.5 Z" id="Shape"></path>
            </g>
        </g>
    </g>
</svg>