<svg xmlns="http://www.w3.org/2000/svg" xmlns:xlink="http://www.w3.org/1999/xlink" viewBox="0 0 247 75">

    <g>
        <g id="logoVivaW">
            <path fill="#fff" d="M27.3 2.3L19.6 25h-.1l.1.4c.6 1.8 3.6 9.9 6.2 8L36.6 2.3h-9.3z" />
            <path fill="url(#VTGradient_Letter_V1_shadow)" d="M25.3 21.3l-.1-.4-2.1-6.3L19.6 25h-.1l-.9 3 2.2 6.2h4.8l2.5-7.1c-1.4-2.1-2.4-4.9-2.8-5.8z" />
            <path fill="#fff" d="M19.6 25.4l-.1-.4-7.6-22.7H2.4l11.8 33.9c.6 1.3 1.8 2.2 3.2 2.2H24l1.7-4.9c-2.5 1.8-5.4-6.2-6.1-8.1z" />

            <path fill="#fff" d="M49.1 4.8c-.5-1.5-1.9-2.6-3.5-2.6h-5.2v36.1h8.7V4.8z" />
            <path fill="#fff" d="M49.1 6.3h-8.7v13.2c3-1.3 6.4 9.1 6.4 9.1l2.3 6.5V6.3z" />
            <path fill="#fff" d="M49.1 4.8c-.5-1.4-1.8-2.5-3.3-2.6h-5.4v4.9c2.8-2.1 6.3 8.4 6.3 8.4l2.4 6.8V4.8z" />

            <path fill="#fff" d="M77.8 2.3L70.1 25H70l.1.4c.6 1.8 3.6 9.9 6.2 8L87.1 2.3h-9.3z" />
            <path fill="#fff" d="M75.9 21.3l-.1-.4-2.1-6.3L70.1 25H70l-.9 3 2.2 6.2h4.8l2.5-7.1c-1.4-2.1-2.4-4.9-2.7-5.8z" />
            <path fill="#fff" d="M70.1 25.4L70 25 62.4 2.3H53l11.8 33.9c.6 1.3 1.8 2.2 3.2 2.2h6.6l1.7-4.9c-2.5 1.8-5.5-6.2-6.2-8.1z" />

            <path fill="#fff" d="M100.1 15.2c-.6-1.8-3.6-9.9-6.2-8L83.2 38.3h9.3l7.7-22.8h.1l-.2-.3z" />
            <path fill="url(#VTGradient_Letter_A_shadow)" d="M100.1 15.2c-.6-1.8-3.6-9.9-6.2-8l-2.2 6.3c1.3 2.1 2.3 4.8 2.6 5.8l.1.4 2.1 6.3 3.5-10.4h.1v-.4z" />
            <path fill="#fff" d="M100.1 15.2l.1.4 7.6 22.8h9.4L105.5 4.5c-.6-1.3-1.8-2.2-3.2-2.2h-6.6L94 7.2c2.5-1.9 5.5 6.1 6.1 8z" />
        </g>

        <g id="logoTechW">
            <path fill="#fff" d="M9.8 52.6H2.4v-5.2h20.7v5.2h-7.4v19.5H9.8V52.6z" />
            <path fill="#fff" d="M26.1 47.4h15.2v5.2H32v4.5h7.4v5.2H32V67h9.8v5.2H26.1V47.4z" />
            <path fill="#fff" d="M57.2 47c6 0 9.1 3.5 9.1 3.5L63.6 55s-2.7-2.5-6.1-2.5c-4.7 0-6.9 3.5-6.9 7 0 3.7 2.4 7.4 6.9 7.4 3.7 0 6.5-3 6.5-3l3.1 4.4s-3.4 4.1-9.8 4.1c-7.6 0-12.7-5.5-12.7-12.8-.1-7.1 5.3-12.6 12.6-12.6z" />
            <path fill="#fff" d="M70.6 47.4h5.9v9.9h8.8v-9.9h5.9v24.7h-5.9v-9.7h-8.8v9.7h-5.9V47.4z" />
            <path fill="#fff" d="M97.1 47.4h6l6.7 11.5c1 1.6 2 4.2 2 4.2h.1s-.3-2.7-.3-4.2V47.4h5.9v24.7h-6l-6.8-11.5c-1-1.6-2-4.2-2-4.2h-.1s.3 2.7.3 4.2v11.5H97V47.4z" />
            <path fill="#fff" d="M134.4 47c7.3 0 12.7 5.5 12.7 12.6 0 7.3-5.4 12.9-12.7 12.9-7.3 0-12.7-5.7-12.7-12.9-.1-7.1 5.3-12.6 12.7-12.6zm0 20c3.6 0 6.6-3.2 6.6-7.4 0-4-2.9-7.1-6.6-7.1-3.6 0-6.6 3-6.6 7.1 0 4.2 2.9 7.4 6.6 7.4z" />
            <path fill="#fff" d="M151.1 47.4h5.9v19.5h9.9v5.2H151V47.4z" />
            <path fill="#fff" d="M181.1 47c7.3 0 12.7 5.5 12.7 12.6 0 7.3-5.4 12.9-12.7 12.9-7.3 0-12.7-5.7-12.7-12.9 0-7.1 5.4-12.6 12.7-12.6zm0 20c3.6 0 6.6-3.2 6.6-7.4 0-4-2.9-7.1-6.6-7.1-3.6 0-6.6 3-6.6 7.1.1 4.2 3 7.4 6.6 7.4z" />
            <path fill="#fff" d="M209 47c6.2 0 9.3 3.3 9.3 3.3l-2.9 4.5s-2.5-2.3-5.9-2.3c-5.1 0-7.2 3.3-7.2 7 0 4.7 3.2 7.5 7 7.5 2.9 0 4.9-1.8 4.9-1.8v-1.9h-3.4v-5.1h8.7v14h-5v-.7-1h-.1s-2.3 2.1-6.4 2.1c-6.2 0-11.9-4.7-11.9-12.8.2-7.3 5.5-12.8 12.9-12.8z" />
            <path fill="#fff" d="M229 62l-8-14.6h6.8l2.8 5.9c.8 1.7 1.5 3.6 1.5 3.6h.1s.7-1.9 1.5-3.6l2.7-5.9h6.8l-8 14.6v10.1H229V62z" />
        </g>
    </g>

</svg>